<svg width="720" height="180" viewBox="0 0 720 180" fill="none" xmlns="http://www.w3.org/2000/svg" role="img" aria-labelledby="title desc">
  <title id="title">Atlas logo</title>
  <desc id="desc">Atlas wordmark with a compass route mark.</desc>
  <rect width="720" height="180" rx="28" fill="#FFFFFF"/>
  <g transform="translate(42 34)">
    <circle cx="56" cy="56" r="50" fill="#F8F9FB" stroke="#D8E3EC" stroke-width="2"/>
    <path d="M56 14C70.4 38.8 81.2 49.6 106 64C81.2 78.4 70.4 89.2 56 114C41.6 89.2 30.8 78.4 6 64C30.8 49.6 41.6 38.8 56 14Z" fill="#0B73B9"/>
    <path d="M56 34L69.5 66.5L37.5 78.5L50 47.5L56 34Z" fill="#FFFFFF"/>
    <circle cx="56" cy="64" r="5.5" fill="#0A0C10"/>
    <path d="M28 103C50 90 66 89 87 101" stroke="#0B73B9" stroke-width="5" stroke-linecap="round"/>
    <circle cx="40" cy="97" r="4.5" fill="#FFFFFF" stroke="#0B73B9" stroke-width="2"/>
    <circle cx="58" cy="93" r="4.5" fill="#FFFFFF" stroke="#0B73B9" stroke-width="2"/>
    <circle cx="78" cy="96" r="4.5" fill="#FFFFFF" stroke="#0B73B9" stroke-width="2"/>
  </g>
  <g transform="translate(180 47)">
    <text x="0" y="54" font-family="Inter, Arial, sans-serif" font-size="58" font-weight="700" fill="#0A0C10" letter-spacing="0">Atlas</text>
    <text x="3" y="91" font-family="Inter, Arial, sans-serif" font-size="21" font-weight="500" fill="#5C6370" letter-spacing="0">Map your next career move.</text>
  </g>
</svg>
